ply
format ascii 1.0
comment : MagicaVoxel @ Ephtracy
element vertex 20
property float x
property float y
property float z
property uchar red
property uchar green
property uchar blue
end_header
-1 -1 0 153 153 255
0 -1 0 153 153 255
1 -1 0 153 153 255
-1 0 0 153 153 255
1 0 0 153 153 255
-1 1 0 153 153 255
0 1 0 153 153 255
1 1 0 153 153 255
-1 -1 1 153 153 255
1 -1 1 153 153 255
-1 1 1 153 153 255
1 1 1 153 153 255
-1 -1 2 153 153 255
0 -1 2 153 153 255
1 -1 2 153 153 255
-1 0 2 153 153 255
1 0 2 153 153 255
-1 1 2 153 153 255
0 1 2 153 153 255
1 1 2 153 153 255
